# Tiled2Unity generated file. Do not modify by hand.
# Wavefront file for 'testMap_mesh_0004.obj'

# Vertices (Count = 344)
v 0 -32 0
v -32 -32 0
v -32 0 0
v 0 0 0
v -32 -32 0
v -64 -32 0
v -64 0 0
v -32 0 0
v -256 -32 0
v -288 -32 0
v -288 0 0
v -256 0 0
v -352 -32 0
v -384 -32 0
v -384 0 0
v -352 0 0
v -448 -32 0
v -480 -32 0
v -480 0 0
v -448 0 0
v -480 -32 0
v -512 -32 0
v -512 0 0
v -480 0 0
v -512 -32 0
v -544 -32 0
v -544 0 0
v -512 0 0
v -544 -32 0
v -576 -32 0
v -576 0 0
v -544 0 0
v -576 -32 0
v -608 -32 0
v -608 0 0
v -576 0 0
v -608 -32 0
v -640 -32 0
v -640 0 0
v -608 0 0
v 0 -64 0
v -32 -64 0
v -32 -32 0
v 0 -32 0
v -32 -64 0
v -64 -64 0
v -64 -32 0
v -32 -32 0
v -256 -64 0
v -288 -64 0
v -288 -32 0
v -256 -32 0
v -352 -64 0
v -384 -64 0
v -384 -32 0
v -352 -32 0
v -448 -64 0
v -480 -64 0
v -480 -32 0
v -448 -32 0
v -480 -64 0
v -512 -64 0
v -512 -32 0
v -480 -32 0
v -512 -64 0
v -544 -64 0
v -544 -32 0
v -512 -32 0
v -544 -64 0
v -576 -64 0
v -576 -32 0
v -544 -32 0
v -576 -64 0
v -608 -64 0
v -608 -32 0
v -576 -32 0
v -608 -64 0
v -640 -64 0
v -640 -32 0
v -608 -32 0
v 0 -96 0
v -32 -96 0
v -32 -64 0
v 0 -64 0
v -32 -96 0
v -64 -96 0
v -64 -64 0
v -32 -64 0
v -64 -96 0
v -96 -96 0
v -96 -64 0
v -64 -64 0
v -128 -96 0
v -160 -96 0
v -160 -64 0
v -128 -64 0
v -256 -96 0
v -288 -96 0
v -288 -64 0
v -256 -64 0
v -352 -96 0
v -384 -96 0
v -384 -64 0
v -352 -64 0
v -448 -96 0
v -480 -96 0
v -480 -64 0
v -448 -64 0
v -480 -96 0
v -512 -96 0
v -512 -64 0
v -480 -64 0
v -512 -96 0
v -544 -96 0
v -544 -64 0
v -512 -64 0
v -544 -96 0
v -576 -96 0
v -576 -64 0
v -544 -64 0
v -576 -96 0
v -608 -96 0
v -608 -64 0
v -576 -64 0
v -608 -96 0
v -640 -96 0
v -640 -64 0
v -608 -64 0
v -64 -128 0
v -96 -128 0
v -96 -96 0
v -64 -96 0
v -128 -128 0
v -160 -128 0
v -160 -96 0
v -128 -96 0
v -256 -128 0
v -288 -128 0
v -288 -96 0
v -256 -96 0
v -352 -128 0
v -384 -128 0
v -384 -96 0
v -352 -96 0
v -256 -160 0
v -288 -160 0
v -288 -128 0
v -256 -128 0
v -352 -160 0
v -384 -160 0
v -384 -128 0
v -352 -128 0
v -256 -192 0
v -288 -192 0
v -288 -160 0
v -256 -160 0
v -352 -192 0
v -384 -192 0
v -384 -160 0
v -352 -160 0
v -512 -192 0
v -544 -192 0
v -544 -160 0
v -512 -160 0
v -96 -224 0
v -128 -224 0
v -128 -192 0
v -96 -192 0
v -256 -224 0
v -288 -224 0
v -288 -192 0
v -256 -192 0
v -352 -224 0
v -384 -224 0
v -384 -192 0
v -352 -192 0
v -256 -256 0
v -288 -256 0
v -288 -224 0
v -256 -224 0
v -352 -256 0
v -384 -256 0
v -384 -224 0
v -352 -224 0
v -256 -288 0
v -288 -288 0
v -288 -256 0
v -256 -256 0
v -352 -288 0
v -384 -288 0
v -384 -256 0
v -352 -256 0
v -384 -288 0
v -416 -288 0
v -416 -256 0
v -384 -256 0
v -416 -288 0
v -448 -288 0
v -448 -256 0
v -416 -256 0
v -448 -288 0
v -480 -288 0
v -480 -256 0
v -448 -256 0
v -512 -288 0
v -544 -288 0
v -544 -256 0
v -512 -256 0
v -128 -320 0
v -160 -320 0
v -160 -288 0
v -128 -288 0
v -64 -352 0
v -96 -352 0
v -96 -320 0
v -64 -320 0
v -352 -352 0
v -384 -352 0
v -384 -320 0
v -352 -320 0
v -576 -384 0
v -608 -384 0
v -608 -352 0
v -576 -352 0
v -224 -416 0
v -256 -416 0
v -256 -384 0
v -224 -384 0
v -192 -480 0
v -224 -480 0
v -224 -448 0
v -192 -448 0
v -256 -480 0
v -288 -480 0
v -288 -448 0
v -256 -448 0
v -352 -480 0
v -384 -480 0
v -384 -448 0
v -352 -448 0
v -256 -512 0
v -288 -512 0
v -288 -480 0
v -256 -480 0
v -352 -512 0
v -384 -512 0
v -384 -480 0
v -352 -480 0
v -512 -512 0
v -544 -512 0
v -544 -480 0
v -512 -480 0
v -32 -544 0
v -64 -544 0
v -64 -512 0
v -32 -512 0
v -256 -544 0
v -288 -544 0
v -288 -512 0
v -256 -512 0
v -352 -544 0
v -384 -544 0
v -384 -512 0
v -352 -512 0
v -512 -544 0
v -544 -544 0
v -544 -512 0
v -512 -512 0
v -544 -544 0
v -576 -544 0
v -576 -512 0
v -544 -512 0
v -576 -544 0
v -608 -544 0
v -608 -512 0
v -576 -512 0
v -96 -576 0
v -128 -576 0
v -128 -544 0
v -96 -544 0
v -192 -576 0
v -224 -576 0
v -224 -544 0
v -192 -544 0
v -224 -576 0
v -256 -576 0
v -256 -544 0
v -224 -544 0
v -256 -576 0
v -288 -576 0
v -288 -544 0
v -256 -544 0
v -352 -576 0
v -384 -576 0
v -384 -544 0
v -352 -544 0
v -480 -576 0
v -512 -576 0
v -512 -544 0
v -480 -544 0
v -512 -576 0
v -544 -576 0
v -544 -544 0
v -512 -544 0
v -544 -576 0
v -576 -576 0
v -576 -544 0
v -544 -544 0
v -576 -576 0
v -608 -576 0
v -608 -544 0
v -576 -544 0
v -32 -608 0
v -64 -608 0
v -64 -576 0
v -32 -576 0
v -256 -608 0
v -288 -608 0
v -288 -576 0
v -256 -576 0
v -352 -608 0
v -384 -608 0
v -384 -576 0
v -352 -576 0
v -512 -608 0
v -544 -608 0
v -544 -576 0
v -512 -576 0
v -544 -608 0
v -576 -608 0
v -576 -576 0
v -544 -576 0
v -576 -608 0
v -608 -608 0
v -608 -576 0
v -576 -576 0
v -256 -640 0
v -288 -640 0
v -288 -608 0
v -256 -608 0
v -352 -640 0
v -384 -640 0
v -384 -608 0
v -352 -608 0

# Texture cooridinates (Count = 66)
vt 0.5454546 0.88
vt 0.5909091 0.88
vt 0.5909091 0.92
vt 0.5454546 0.92
vt 0.5 0.84
vt 0.5454546 0.84
vt 0.5 0.88
vt 0.9090909 0.68
vt 0.9545454 0.68
vt 0.9545454 0.72
vt 0.9090909 0.72
vt 0.9545454 0.64
vt 1 0.64
vt 1 0.68
vt 0.4545455 0.84
vt 0.4545455 0.88
vt 0.6363636 0.88
vt 0.6363636 0.92
vt 0.5909091 0.84
vt 0.5 0.92
vt 0.4545455 0.92
vt 0.6363636 0.84
vt 0.3181818 0.84
vt 0.3636364 0.84
vt 0.3636364 0.88
vt 0.3181818 0.88
vt 0.4090909 0.84
vt 0.4090909 0.88
vt 0.3181818 0.8
vt 0.3636364 0.8
vt 0.4090909 0.8
vt 0.4545455 0.8
vt 0.6818182 0.72
vt 0.7272727 0.72
vt 0.7272727 0.76
vt 0.6818182 0.76
vt 0.04545455 0.72
vt 0.09090909 0.72
vt 0.09090909 0.76
vt 0.04545455 0.76
vt 0.1363636 0.72
vt 0.1363636 0.76
vt 0.8181818 0.88
vt 0.8636364 0.88
vt 0.8636364 0.92
vt 0.8181818 0.92
vt 0.7727273 0.76
vt 0.8181818 0.76
vt 0.8181818 0.8
vt 0.7727273 0.8
vt 0.5 0.8
vt 0.7727273 0.72
vt 0.8181818 0.72
vt 0.9090909 0.64
vt 0.3636364 0.92
vt 0.3181818 0.92
vt 0.4090909 0.92
vt 0.6363636 0.76
vt 0.6818182 0.8
vt 0.6363636 0.8
vt 0.8181818 0.64
vt 0.8636364 0.64
vt 0.8636364 0.68
vt 0.8181818 0.68
vt 0.04545455 0.68
vt 0.09090909 0.68

# Normal
vn 0 0 -1

# Mesh description
g testMap_mesh_0004

# Faces
f 1/1/1 2/2/1 3/3/1 4/4/1
f 5/5/1 6/6/1 7/1/1 8/7/1
f 9/8/1 10/9/1 11/10/1 12/11/1
f 13/12/1 14/13/1 15/14/1 16/9/1
f 17/15/1 18/5/1 19/7/1 20/16/1
f 21/2/1 22/17/1 23/18/1 24/3/1
f 25/1/1 26/2/1 27/3/1 28/4/1
f 29/2/1 30/17/1 31/18/1 32/3/1
f 33/1/1 34/2/1 35/3/1 36/4/1
f 37/2/1 38/17/1 39/18/1 40/3/1
f 41/6/1 42/19/1 43/2/1 44/1/1
f 45/7/1 46/1/1 47/4/1 48/20/1
f 49/8/1 50/9/1 51/10/1 52/11/1
f 53/12/1 54/13/1 55/14/1 56/9/1
f 57/16/1 58/7/1 59/20/1 60/21/1
f 61/19/1 62/22/1 63/17/1 64/2/1
f 65/6/1 66/19/1 67/2/1 68/1/1
f 69/19/1 70/22/1 71/17/1 72/2/1
f 73/6/1 74/19/1 75/2/1 76/1/1
f 77/19/1 78/22/1 79/17/1 80/2/1
f 81/15/1 82/5/1 83/7/1 84/16/1
f 85/5/1 86/6/1 87/1/1 88/7/1
f 89/23/1 90/24/1 91/25/1 92/26/1
f 93/27/1 94/15/1 95/16/1 96/28/1
f 97/8/1 98/9/1 99/10/1 100/11/1
f 101/12/1 102/13/1 103/14/1 104/9/1
f 105/15/1 106/5/1 107/7/1 108/16/1
f 109/5/1 110/6/1 111/1/1 112/7/1
f 113/15/1 114/5/1 115/7/1 116/16/1
f 117/5/1 118/6/1 119/1/1 120/7/1
f 121/15/1 122/5/1 123/7/1 124/16/1
f 125/5/1 126/6/1 127/1/1 128/7/1
f 129/29/1 130/30/1 131/24/1 132/23/1
f 133/31/1 134/32/1 135/15/1 136/27/1
f 137/8/1 138/9/1 139/10/1 140/11/1
f 141/12/1 142/13/1 143/14/1 144/9/1
f 145/8/1 146/9/1 147/10/1 148/11/1
f 149/12/1 150/13/1 151/14/1 152/9/1
f 153/8/1 154/9/1 155/10/1 156/11/1
f 157/12/1 158/13/1 159/14/1 160/9/1
f 161/33/1 162/34/1 163/35/1 164/36/1
f 165/33/1 166/34/1 167/35/1 168/36/1
f 169/8/1 170/9/1 171/10/1 172/11/1
f 173/12/1 174/13/1 175/14/1 176/9/1
f 177/8/1 178/9/1 179/10/1 180/11/1
f 181/12/1 182/13/1 183/14/1 184/9/1
f 185/8/1 186/9/1 187/10/1 188/11/1
f 189/12/1 190/13/1 191/14/1 192/9/1
f 193/33/1 194/34/1 195/35/1 196/36/1
f 197/37/1 198/38/1 199/39/1 200/40/1
f 201/38/1 202/41/1 203/42/1 204/39/1
f 205/43/1 206/44/1 207/45/1 208/46/1
f 209/33/1 210/34/1 211/35/1 212/36/1
f 213/47/1 214/48/1 215/49/1 216/50/1
f 217/32/1 218/51/1 219/5/1 220/15/1
f 221/47/1 222/48/1 223/49/1 224/50/1
f 225/47/1 226/48/1 227/49/1 228/50/1
f 229/52/1 230/53/1 231/48/1 232/47/1
f 233/54/1 234/12/1 235/9/1 236/8/1
f 237/12/1 238/13/1 239/14/1 240/9/1
f 241/54/1 242/12/1 243/9/1 244/8/1
f 245/12/1 246/13/1 247/14/1 248/9/1
f 249/33/1 250/34/1 251/35/1 252/36/1
f 253/33/1 254/34/1 255/35/1 256/36/1
f 257/54/1 258/12/1 259/9/1 260/8/1
f 261/12/1 262/13/1 263/14/1 264/9/1
f 265/26/1 266/25/1 267/55/1 268/56/1
f 269/25/1 270/28/1 271/57/1 272/55/1
f 273/28/1 274/16/1 275/21/1 276/57/1
f 277/58/1 278/36/1 279/59/1 280/60/1
f 281/61/1 282/62/1 283/63/1 284/64/1
f 285/62/1 286/54/1 287/8/1 288/63/1
f 289/54/1 290/12/1 291/9/1 292/8/1
f 293/12/1 294/13/1 295/14/1 296/9/1
f 297/65/1 298/66/1 299/38/1 300/37/1
f 301/23/1 302/24/1 303/25/1 304/26/1
f 305/24/1 306/27/1 307/28/1 308/25/1
f 309/27/1 310/15/1 311/16/1 312/28/1
f 313/58/1 314/36/1 315/59/1 316/60/1
f 317/54/1 318/12/1 319/9/1 320/8/1
f 321/12/1 322/13/1 323/14/1 324/9/1
f 325/29/1 326/30/1 327/24/1 328/23/1
f 329/30/1 330/31/1 331/27/1 332/24/1
f 333/31/1 334/32/1 335/15/1 336/27/1
f 337/54/1 338/12/1 339/9/1 340/8/1
f 341/12/1 342/13/1 343/14/1 344/9/1

