# Tiled2Unity generated file. Do not modify by hand.
# Wavefront file for 'testMap_mesh_0003.obj'

# Vertices (Count = 16)
v -480 -384 0
v -512 -384 0
v -512 -352 0
v -480 -352 0
v -512 -384 0
v -544 -384 0
v -544 -352 0
v -512 -352 0
v -96 -480 0
v -128 -480 0
v -128 -448 0
v -96 -448 0
v -128 -480 0
v -160 -480 0
v -160 -448 0
v -128 -448 0

# Texture cooridinates (Count = 12)
vt 0.5625 0.125
vt 0.625 0.125
vt 0.625 0.1875
vt 0.5625 0.1875
vt 0.6875 0.125
vt 0.6875 0.1875
vt 0.75 0.125
vt 0.8125 0.125
vt 0.8125 0.1875
vt 0.75 0.1875
vt 0.875 0.125
vt 0.875 0.1875

# Normal
vn 0 0 -1

# Mesh description
g testMap_mesh_0003

# Faces
f 1/1/1 2/2/1 3/3/1 4/4/1
f 5/2/1 6/5/1 7/6/1 8/3/1
f 9/7/1 10/8/1 11/9/1 12/10/1
f 13/8/1 14/11/1 15/12/1 16/9/1

